<?xml version="1.0" encoding="UTF-8"?>
<svg width="1920px" height="1080px" viewBox="0 0 1920 1080" version="1.1" xmlns="http://www.w3.org/2000/svg" xmlns:xlink="http://www.w3.org/1999/xlink">
    <!-- Generator: Sketch 49.2 (51160) - http://www.bohemiancoding.com/sketch -->
    <title>Desktop HD SVG</title>
    <desc>Created with Sketch.</desc>
    <defs>
        <linearGradient x1="-11.2681624%" y1="77.6316652%" x2="94.3874096%" y2="11.3808228%" id="linearGradient-1">
            <stop stop-color="#CA435B" offset="0%"></stop>
            <stop stop-color="#CE2E41" offset="100%"></stop>
        </linearGradient>
        <linearGradient x1="50%" y1="7.7943887%" x2="50%" y2="100%" id="linearGradient-2">
            <stop stop-color="#F67777" offset="0%"></stop>
            <stop stop-color="#EA4242" offset="100%"></stop>
        </linearGradient>
    </defs>
    <g id="Desktop-HD-SVG" stroke="none" stroke-width="1" fill="none" fill-rule="evenodd">
        <g id="Group" transform="translate(643.000000, 366.500000) scale(1, -1) translate(-643.000000, -366.500000) translate(-469.000000, -929.000000)">
            <rect id="Rectangle-4" fill="url(#linearGradient-1)" x="462" y="574" width="562" height="1217"></rect>
            <path d="M1160.67634,683.823467 L1823.67634,1066.28884 C1841.63178,1076.64681 1852.69441,1095.79988 1852.69441,1116.52874 L1852.69441,1881.37606 C1852.69441,1902.10492 1841.63178,1921.25799 1823.67634,1931.61596 L1160.67634,2314.08134 C1142.74026,2324.42814 1120.64855,2324.42814 1102.71247,2314.08134 L439.712473,1931.61596 C421.75703,1921.25799 410.694407,1902.10492 410.694407,1881.37606 L410.694407,1116.52874 C410.694407,1095.79988 421.75703,1076.64681 439.712473,1066.28884 L1102.71247,683.823467 C1120.64855,673.476666 1142.74026,673.476666 1160.67634,683.823467 Z" id="Polygon-Copy" fill="url(#linearGradient-2)" transform="translate(1131.694407, 1498.952402) rotate(-45.000000) translate(-1131.694407, -1498.952402) "></path>
            <path d="M838.014004,124.385225 L1088.014,268.815747 C1105.95137,279.178562 1117,298.321506 1117,319.037133 L1117,607.962867 C1117,628.678494 1105.95137,647.821438 1088.014,658.184253 L838.014004,802.614775 C820.061625,812.98626 797.938375,812.98626 779.985996,802.614775 L529.985996,658.184253 C512.048626,647.821438 501,628.678494 501,607.962867 L501,319.037133 C501,298.321506 512.048626,279.178562 529.985996,268.815747 L779.985996,124.385225 C797.938375,114.01374 820.061625,114.01374 838.014004,124.385225 Z" id="Polygon-Copy-2" fill-opacity="0.237884964" fill="#FFFFFF" opacity="0.279743304" transform="translate(809.000000, 463.500000) rotate(-45.000000) translate(-809.000000, -463.500000) "></path>
            <path d="M493.014004,787.385225 L743.014004,931.815747 C760.951374,942.178562 772,961.321506 772,982.037133 L772,1270.96287 C772,1291.67849 760.951374,1310.82144 743.014004,1321.18425 L493.014004,1465.61477 C475.061625,1475.98626 452.938375,1475.98626 434.985996,1465.61477 L184.985996,1321.18425 C167.048626,1310.82144 156,1291.67849 156,1270.96287 L156,982.037133 C156,961.321506 167.048626,942.178562 184.985996,931.815747 L434.985996,787.385225 C452.938375,777.01374 475.061625,777.01374 493.014004,787.385225 Z" id="Polygon-Copy-3" fill-opacity="0.237884964" fill="#FFFFFF" transform="translate(464.000000, 1126.500000) rotate(-45.000000) translate(-464.000000, -1126.500000) "></path>
            <path d="M698.014004,1407.38523 L948.014004,1551.81575 C965.951374,1562.17856 977,1581.32151 977,1602.03713 L977,1890.96287 C977,1911.67849 965.951374,1930.82144 948.014004,1941.18425 L698.014004,2085.61477 C680.061625,2095.98626 657.938375,2095.98626 639.985996,2085.61477 L389.985996,1941.18425 C372.048626,1930.82144 361,1911.67849 361,1890.96287 L361,1602.03713 C361,1581.32151 372.048626,1562.17856 389.985996,1551.81575 L639.985996,1407.38523 C657.938375,1397.01374 680.061625,1397.01374 698.014004,1407.38523 Z" id="Polygon-Copy-4" fill-opacity="0.237884964" fill="#FFFFFF" opacity="0.76171875" transform="translate(669.000000, 1746.500000) rotate(-45.000000) translate(-669.000000, -1746.500000) "></path>
        </g>
    </g>
</svg>